<svg width="24" height="24" viewBox="0 0 24 24" fill="none" xmlns="http://www.w3.org/2000/svg">
<path d="M4.69423 11.0097L12.5183 18.8338L20.3424 11.0097C21.0342 10.318 21.4228 9.37974 21.4228 8.40146C21.4228 7.42319 21.0342 6.48497 20.3424 5.79323C19.9999 5.45071 19.5933 5.17901 19.1458 4.99364C18.6982 4.80827 18.2186 4.71286 17.7342 4.71286C16.7559 4.71286 15.8177 5.10148 15.126 5.79323L12.5183 8.40085L9.91071 5.79446C9.2172 5.11199 8.28211 4.73121 7.30912 4.73505C6.33613 4.7389 5.40408 5.12706 4.71599 5.81499C4.0279 6.50292 3.63952 7.43488 3.63544 8.40787C3.63136 9.38085 4.01193 10.316 4.69423 11.0097ZM11.6491 4.05358L12.5183 4.92279L13.3875 4.05358C13.9574 3.47866 14.6353 3.02197 15.3822 2.70973C16.129 2.39748 16.9302 2.23583 17.7398 2.23406C18.5493 2.23229 19.3512 2.39042 20.0994 2.6994C20.8477 3.00837 21.5275 3.46209 22.0999 4.0345C22.6723 4.60692 23.1261 5.28676 23.435 6.035C23.744 6.78324 23.9021 7.58514 23.9004 8.39466C23.8986 9.20418 23.7369 10.0054 23.4247 10.7523C23.1125 11.4991 22.6558 12.177 22.0808 12.7469L13.3888 21.4402C13.2746 21.5545 13.139 21.6452 12.9897 21.7071C12.8405 21.7689 12.6805 21.8008 12.5189 21.8008C12.3574 21.8008 12.1974 21.7689 12.0481 21.7071C11.8989 21.6452 11.7633 21.5545 11.6491 21.4402L2.95581 12.7481C2.37308 12.18 1.90894 11.5019 1.59032 10.7531C1.2717 10.0042 1.10495 9.19956 1.09974 8.38577C1.09452 7.57198 1.25095 6.76525 1.55994 6.01238C1.86894 5.25951 2.32435 4.57549 2.89976 4C3.47517 3.42451 4.15913 2.969 4.91195 2.6599C5.66478 2.35079 6.47149 2.19425 7.28528 2.19935C8.09908 2.20445 8.90376 2.37109 9.65265 2.6896C10.4015 3.00811 11.0797 3.47215 11.6479 4.05481L11.6491 4.05358Z" fill="#181725"/>
</svg>
